<?xml version="1.0" encoding="iso-8859-1"?>
<!-- Generator: Adobe Illustrator 19.0.0, SVG Export Plug-In . SVG Version: 6.00 Build 0)  -->
<svg version="1.1" id="Layer_1" xmlns="http://www.w3.org/2000/svg" xmlns:xlink="http://www.w3.org/1999/xlink" x="0px" y="0px"
	 viewBox="0 0 509.287 509.287" style="enable-background:new 0 0 509.287 509.287;" xml:space="preserve">
<circle style="fill:#6EB1E1;" cx="254.644" cy="254.644" r="254.644"/>
<polygon style="fill:#F1F3F7;" points="353.992,480.127 155.295,480.127 123.083,109.521 386.204,109.521 "/>
<path style="fill:#DEDEDF;" d="M395.359,72.901h-281.43c-6.103,0-11.189,5.086-11.189,11.189v14.241
	c0,6.103,5.086,11.189,11.189,11.189h281.43c6.103,0,11.189-5.086,11.189-11.189V84.09
	C406.209,77.648,401.462,72.901,395.359,72.901z"/>
<polygon style="fill:#FCFCFD;" points="356.366,29.16 152.922,29.16 123.083,72.901 386.204,72.901 "/>
<path style="fill:#886C60;" d="M378.744,193.95h-61.033c-14.919-27.126-37.637-44.079-63.068-44.079s-48.148,17.293-63.068,44.079
	h-61.033l13.563,154.956h51.878c14.919,23.057,35.603,37.298,58.999,37.298s44.079-14.58,58.999-37.298h51.878L378.744,193.95z"/>
<g>
</g>
<g>
</g>
<g>
</g>
<g>
</g>
<g>
</g>
<g>
</g>
<g>
</g>
<g>
</g>
<g>
</g>
<g>
</g>
<g>
</g>
<g>
</g>
<g>
</g>
<g>
</g>
<g>
</g>
</svg>
