<?xml version="1.0" encoding="iso-8859-1"?>
<!-- Generator: Adobe Illustrator 19.0.0, SVG Export Plug-In . SVG Version: 6.00 Build 0)  -->
<svg version="1.1" id="Layer_1" xmlns="http://www.w3.org/2000/svg" xmlns:xlink="http://www.w3.org/1999/xlink" x="0px" y="0px"
	 viewBox="0 0 509.287 509.287" style="enable-background:new 0 0 509.287 509.287;" xml:space="preserve">
<circle style="fill:#4F5565;" cx="254.644" cy="254.644" r="254.644"/>
<g>
	<path style="fill:#F1F3F7;" d="M137.664,480.805c34.924,17.971,74.596,28.482,116.98,28.482s81.717-10.172,116.98-28.482
		l7.121-103.417H130.543L137.664,480.805z"/>
	<polygon style="fill:#F1F3F7;" points="395.02,138.681 114.268,138.681 124.101,283.126 385.187,283.126 	"/>
</g>
<polygon style="fill:#DEDEDF;" points="394.003,155.974 395.02,138.681 114.268,138.681 115.285,155.974 "/>
<path style="fill:#FFFFFF;" d="M404.175,92.228H105.113c-5.425,0-9.833,4.408-9.833,9.833v26.787c0,5.425,4.408,9.833,9.833,9.833
	h299.062c5.425,0,9.833-4.408,9.833-9.833v-26.787C414.347,96.636,409.6,92.228,404.175,92.228z"/>
<path style="fill:#886C60;" d="M345.515,51.539H163.772c-14.241,0-33.229,12.207-43.401,29.838l-6.442,11.189h280.752l-6.442-11.189
	C378.405,63.746,359.756,51.539,345.515,51.539z"/>
<path style="fill:#9E8278;" d="M163.772,62.728h181.404c14.241,0,32.89,12.207,43.062,29.499h6.781l-6.442-11.189
	C378.405,63.746,359.756,51.2,345.176,51.2H163.772c-14.241,0-33.229,12.207-43.401,29.838l-6.442,11.189h6.781
	C130.882,74.935,149.531,62.728,163.772,62.728z"/>
<path style="fill:#886C60;" d="M385.187,283.126h-54.93c-15.258-25.43-43.401-42.723-75.613-42.723s-60.355,17.293-75.613,43.062
	h-54.93l6.442,93.923h50.522c15.936,23.735,42.723,39.672,73.579,39.672s57.981-15.597,73.579-39.672h50.522L385.187,283.126z"/>
<g>
</g>
<g>
</g>
<g>
</g>
<g>
</g>
<g>
</g>
<g>
</g>
<g>
</g>
<g>
</g>
<g>
</g>
<g>
</g>
<g>
</g>
<g>
</g>
<g>
</g>
<g>
</g>
<g>
</g>
</svg>
