<?xml version="1.0" encoding="iso-8859-1"?>
<!-- Generator: Adobe Illustrator 19.0.0, SVG Export Plug-In . SVG Version: 6.00 Build 0)  -->
<svg version="1.1" id="Capa_1" xmlns="http://www.w3.org/2000/svg" xmlns:xlink="http://www.w3.org/1999/xlink" x="0px" y="0px"
	 viewBox="0 0 512 512" style="enable-background:new 0 0 512 512;" xml:space="preserve">
<circle style="fill:#FFAA20;" cx="256" cy="256" r="256"/>
<path style="fill:#E67500;" d="M512,256c0-11.796-0.815-23.4-2.36-34.773L348.32,59.908H163.68l-16.392,50.147h-29.479v40.577
	l22.359,22.069l25.643,257.548l13.245,12.335V454l57.254,57.254C242.809,511.748,249.375,512,256,512
	C397.385,512,512,397.385,512,256z"/>
<polygon style="fill:#00E8F2;" points="348.32,59.908 163.68,59.908 146.412,112.734 365.588,112.734 "/>
<polygon style="fill:#00B7BE;" points="365.59,112.73 256,112.73 256,59.91 348.32,59.91 364.71,110.05 "/>
<rect x="179.06" y="428.16" style="fill:#FFEC97;" width="153.89" height="25.839"/>
<rect x="256" y="428.16" style="fill:#FFDF47;" width="76.94" height="25.84"/>
<polygon style="fill:#FFFFFF;" points="137.497,145.865 165.812,430.247 346.188,430.247 374.503,145.865 "/>
<polygon style="fill:#FFF5CB;" points="374.5,145.87 374.03,150.63 367.61,215.06 352.86,363.2 346.19,430.25 256,430.25 
	256,145.87 "/>
<rect x="117.81" y="110.05" style="fill:#54FBFF;" width="276.38" height="40.577"/>
<rect x="256" y="110.05" style="fill:#00D9E0;" width="138.19" height="40.58"/>
<path style="fill:#00E8F2;" d="M144.386,215.058l14.751,148.143h193.727l14.75-148.143L144.386,215.058L144.386,215.058z
	 M256,345.784c-30.655,0-55.506-24.851-55.506-55.506s24.851-55.506,55.506-55.506s55.506,24.851,55.506,55.506
	S286.655,345.784,256,345.784z"/>
<path style="fill:#00B7BE;" d="M256,215.06v19.71c30.66,0,55.51,24.85,55.51,55.51c0,30.65-24.85,55.5-55.51,55.5v17.42h96.86
	l14.75-148.14L256,215.06L256,215.06z"/>
<path style="fill:#FFAA20;" d="M256,326.352L256,326.352c-12.738,0-23.159-10.422-23.159-23.159v-26.03
	c0-12.738,10.422-23.159,23.159-23.159l0,0c12.738,0,23.159,10.422,23.159,23.159v26.03C279.159,315.93,268.738,326.352,256,326.352
	z"/>
<path style="fill:#E67500;" d="M279.16,277.16v26.03c0,12.74-10.42,23.16-23.16,23.16V254c6.37,0,12.16,2.6,16.36,6.8
	C276.56,265,279.16,270.79,279.16,277.16z"/>
<path style="fill:#C06100;" d="M260.817,287.315c-2.744-3.907-4.911-6.992-4.911-13.736c0-6.742,2.168-9.828,4.91-13.733
	c0.98-1.396,1.995-2.861,2.937-4.496c-2.427-0.869-5.037-1.347-7.753-1.347c-1.767,0-3.486,0.207-5.142,0.586
	c-3.077,4.393-6.42,9.474-6.42,18.99c0,9.852,3.584,14.954,6.745,19.454c2.744,3.908,4.912,6.993,4.912,13.738
	c0,6.744-2.168,9.829-4.912,13.736c-0.98,1.396-1.995,2.862-2.937,4.498c2.428,0.87,5.038,1.348,7.755,1.348
	c1.766,0,3.485-0.207,5.14-0.586c3.077-4.393,6.422-9.476,6.422-18.995C267.562,296.919,263.978,291.816,260.817,287.315z"/>
<g>
	<path style="fill:#703700;" d="M260.82,259.85c-2.43,3.44-4.4,6.25-4.82,11.5V254c2.72,0,5.33,0.48,7.75,1.35
		C262.81,256.98,261.8,258.45,260.82,259.85z"/>
	<path style="fill:#703700;" d="M267.56,306.77c0,9.52-3.34,14.6-6.42,19c-1.66,0.37-3.37,0.58-5.14,0.58V309
		c0.06-0.7,0.09-1.44,0.09-2.23s-0.03-1.53-0.09-2.23v-28.73c0.42,5.25,2.39,8.06,4.82,11.5
		C263.98,291.82,267.56,296.92,267.56,306.77z"/>
</g>
<path style="fill:#00C379;" d="M256,271.35v4.46c-0.06-0.7-0.09-1.44-0.09-2.23C255.91,272.79,255.94,272.05,256,271.35z"/>
<g>
</g>
<g>
</g>
<g>
</g>
<g>
</g>
<g>
</g>
<g>
</g>
<g>
</g>
<g>
</g>
<g>
</g>
<g>
</g>
<g>
</g>
<g>
</g>
<g>
</g>
<g>
</g>
<g>
</g>
</svg>
